<svg xmlns="http://www.w3.org/2000/svg" viewBox="0 0 1536 730" preserveAspectRatio="xMidYMid" width="1536" height="730" xmlns:xlink="http://www.w3.org/1999/xlink" style="shape-rendering:auto;display:block;background-position-x:0%;background-position-y:0%;background-size:auto;background-origin:padding-box;background-clip:border-box;background:scroll rgb(255, 255, 255) none  repeat;width:1536px;height:730px;;animation:none"><g><linearGradient y2="0" y1="0" x2="1" x1="0" id="lg-o578w6yh81n"><stop offset="0" stop-color="#295728"></stop>

  
<stop offset="1" stop-color="#5db13f"></stop></linearGradient>
<path opacity="0.4" fill="url(#lg-o578w6yh81n)" d="M 0 0 L 0 493.98 Q 153.6 474.95 307.2 454.94 T 614.4 348.06 T 921.6 314.77 T 1228.8 364.83 T 1536 289.28 L 1536 0 Z" style="fill:url('#lg-o578w6yh81n');opacity:0.4;;animation:none"></path>
<path opacity="0.4" fill="url(#lg-o578w6yh81n)" d="M 0 0 L 0 456.393 Q 153.6 442.8 307.2 417.976 T 614.4 364.994 T 921.6 298.295 T 1228.8 238.437 T 1536 238.834 L 1536 0 Z" style="fill:url('#lg-o578w6yh81n');opacity:0.4;;animation:none"></path>
<path opacity="0.4" fill="url(#lg-o578w6yh81n)" d="M 0 0 L 0 467.962 Q 153.6 513.993 307.2 489.774 T 614.4 326.895 T 921.6 356.428 T 1228.8 276.387 T 1536 225.36 L 1536 0 Z" style="fill:url('#lg-o578w6yh81n');opacity:0.4;;animation:none"></path>
<path opacity="0.4" fill="url(#lg-o578w6yh81n)" d="M 0 0 L 0 499.37 Q 153.6 432.823 307.2 408.102 T 614.4 426.362 T 921.6 332.287 T 1228.8 361.931 T 1536 285.01 L 1536 0 Z" style="fill:url('#lg-o578w6yh81n');opacity:0.4;;animation:none"></path>
<path opacity="0.4" fill="url(#lg-o578w6yh81n)" d="M 0 0 L 0 522.631 Q 153.6 448.207 307.2 426.859 T 614.4 359.526 T 921.6 369.398 T 1228.8 232.722 T 1536 182.924 L 1536 0 Z" style="fill:url('#lg-o578w6yh81n');opacity:0.4;;animation:none"></path>
<g></g></g><!-- [ldio] generated by https://loading.io --></svg>