<svg id="visual" viewBox="0 0 1000 180" width="1000" height="180" xmlns="http://www.w3.org/2000/svg" xmlns:xlink="http://www.w3.org/1999/xlink" version="1.1"><rect width="1000" height="180" fill="#FEFEFE"></rect><g><g transform="translate(276 92)"><path d="M0 -21.6L21.6 0L0 21.6L-21.6 0Z" fill="none" stroke="#5DB13F" stroke-width="2"></path></g><g transform="translate(404 78)"><path d="M0 -17L17 0L0 17L-17 0Z" fill="none" stroke="#5DB13F" stroke-width="2"></path></g><g transform="translate(361 35)"><path d="M0 -13L13 0L0 13L-13 0Z" fill="none" stroke="#5DB13F" stroke-width="2"></path></g><g transform="translate(245 127)"><path d="M0 -13L13 0L0 13L-13 0Z" fill="none" stroke="#5DB13F" stroke-width="2"></path></g><g transform="translate(255 38)"><path d="M0 -9L9 0L0 9L-9 0Z" fill="none" stroke="#5DB13F" stroke-width="2"></path></g><g transform="translate(286 147)"><path d="M0 -3L3 0L0 3L-3 0Z" fill="none" stroke="#5DB13F" stroke-width="2"></path></g><g transform="translate(450 76)"><path d="M0 -18L18 0L0 18L-18 0Z" fill="none" stroke="#5DB13F" stroke-width="2"></path></g><g transform="translate(956 27)"><path d="M0 -13L13 0L0 13L-13 0Z" fill="none" stroke="#5DB13F" stroke-width="2"></path></g><g transform="translate(786 114)"><path d="M0 -18L18 0L0 18L-18 0Z" fill="none" stroke="#5DB13F" stroke-width="2"></path></g><g transform="translate(608 153)"><path d="M0 -9L9 0L0 9L-9 0Z" fill="none" stroke="#5DB13F" stroke-width="2"></path></g><g transform="translate(139 80)"><path d="M0 -13L13 0L0 13L-13 0Z" fill="none" stroke="#5DB13F" stroke-width="2"></path></g><g transform="translate(906 31)"><path d="M0 -12L12 0L0 12L-12 0Z" fill="none" stroke="#5DB13F" stroke-width="2"></path></g><g transform="translate(500 107)"><path d="M0 -9L9 0L0 9L-9 0Z" fill="none" stroke="#5DB13F" stroke-width="2"></path></g><g transform="translate(731 70)"><path d="M0 -18L18 0L0 18L-18 0Z" fill="none" stroke="#5DB13F" stroke-width="2"></path></g><g transform="translate(826 99)"><path d="M0 -2L2 0L0 2L-2 0Z" fill="none" stroke="#5DB13F" stroke-width="2"></path></g><g transform="translate(864 77)"><path d="M0 -8L8 0L0 8L-8 0Z" fill="none" stroke="#5DB13F" stroke-width="2"></path></g><g transform="translate(800 156)"><path d="M0 -14L14 0L0 14L-14 0Z" fill="none" stroke="#5DB13F" stroke-width="2"></path></g><g transform="translate(855 151)"><path d="M0 -10L10 0L0 10L-10 0Z" fill="none" stroke="#5DB13F" stroke-width="2"></path></g><g transform="translate(956 85)"><path d="M0 -11L11 0L0 11L-11 0Z" fill="none" stroke="#5DB13F" stroke-width="2"></path></g><g transform="translate(198 154)"><path d="M0 -9L9 0L0 9L-9 0Z" fill="none" stroke="#5DB13F" stroke-width="2"></path></g><g transform="translate(797 27)"><path d="M0 -12L12 0L0 12L-12 0Z" fill="none" stroke="#5DB13F" stroke-width="2"></path></g><g transform="translate(531 50)"><path d="M0 -14L14 0L0 14L-14 0Z" fill="none" stroke="#5DB13F" stroke-width="2"></path></g><g transform="translate(183 32)"><path d="M0 -8L8 0L0 8L-8 0Z" fill="none" stroke="#5DB13F" stroke-width="2"></path></g><g transform="translate(32 23)"><path d="M0 -5L5 0L0 5L-5 0Z" fill="none" stroke="#5DB13F" stroke-width="2"></path></g><g transform="translate(64 145)"><path d="M0 -5L5 0L0 5L-5 0Z" fill="none" stroke="#5DB13F" stroke-width="2"></path></g><g transform="translate(161 128)"><path d="M0 -17L17 0L0 17L-17 0Z" fill="none" stroke="#5DB13F" stroke-width="2"></path></g><g transform="translate(345 107)"><path d="M0 -5L5 0L0 5L-5 0Z" fill="none" stroke="#5DB13F" stroke-width="2"></path></g><g transform="translate(649 70)"><path d="M0 -18L18 0L0 18L-18 0Z" fill="none" stroke="#5DB13F" stroke-width="2"></path></g><g transform="translate(899 134)"><path d="M0 -19L19 0L0 19L-19 0Z" fill="none" stroke="#5DB13F" stroke-width="2"></path></g><g transform="translate(676 118)"><path d="M0 -7L7 0L0 7L-7 0Z" fill="none" stroke="#5DB13F" stroke-width="2"></path></g><g transform="translate(31 116)"><path d="M0 -5L5 0L0 5L-5 0Z" fill="none" stroke="#5DB13F" stroke-width="2"></path></g><g transform="translate(197 90)"><path d="M0 -17L17 0L0 17L-17 0Z" fill="none" stroke="#5DB13F" stroke-width="2"></path></g><g transform="translate(577 99)"><path d="M0 -10L10 0L0 10L-10 0Z" fill="none" stroke="#5DB13F" stroke-width="2"></path></g></g></svg>